<svg xmlns="http://www.w3.org/2000/svg" width="149.164" height="131.029" viewBox="0 0 149.164 131.029"><g transform="translate(-338.806 -183.598)"><g transform="matrix(0.94, 0.342, -0.342, 0.94, 462.396, 201.466)"><g transform="translate(8.595 -6.96)" fill="#fff"><path d="M 2.335653066635132 59.09090423583984 L 2.443240642547607 7.736353874206543 L 8.139627456665039 3.168450832366943 L 13.56234550476074 7.682692050933838 L 13.45466709136963 59.07604598999023 L 2.335653066635132 59.09090423583984 Z" stroke="none"/><path d="M 8.110025405883789 6.396701812744141 L 4.94072151184082 8.938144683837891 L 4.840895652770996 56.58754730224609 L 10.95989894866943 56.57937240600586 L 11.05988693237305 8.852363586425781 L 8.110025405883789 6.396701812744141 M 8.169210433959961 -0.0597991943359375 L 16.06479835510254 6.513015747070313 L 15.94944763183594 61.57271575927734 L -0.1696033477783203 61.59425354003906 L -0.05425262451171875 6.534538269042969 L 8.169210433959961 -0.0597991943359375 Z" stroke="none" fill="#d9d9ff"/></g><g transform="translate(0.009 49.223)" fill="#fff"><path d="M 2.749523639678955 3.559694290161133 L 2.580359220504761 2.958286762237549 L 2.723562240600586 2.486227989196777 L 30.23137664794922 2.447780847549438 L 30.38328170776367 2.905285358428955 L 30.18891716003418 3.521333932876587 L 2.749523639678955 3.559694290161133 Z" stroke="none"/><path d="M 32.03466415405273 -0.05475425720214844 L 33.01095199584961 2.885625600814819 L 32.02244186401367 6.018775463104248 L 0.8564529418945313 6.06233549118042 L -0.02410507202148438 2.931805610656738 L 0.8686752319335938 -0.0111842155456543 L 32.03466415405273 -0.05475425720214844 Z" stroke="none" fill="#d9d9ff"/></g><g transform="translate(21.059 77.112) rotate(90)" fill="#fff"><path d="M0,0,2.676.036l0,9.463L0,9.463Z" stroke="none"/><path d="M -4.529953002929688e-06 3.814697265625e-06 L 2.675855398178101 0.03575420379638672 L 2.677855491638184 9.498784065246582 L 0.001995563507080078 9.463033676147461 L -4.529953002929688e-06 3.814697265625e-06 Z" stroke="none" fill="#d9d9ff"/></g><g transform="translate(21.06 53.997) rotate(90)" fill="#fff"><path d="M0,0,4.255.036l0,9.463L0,9.463Z" stroke="none"/><path d="M 3.814697265625e-06 3.814697265625e-06 L 4.254623889923096 0.03575420379638672 L 4.257783889770508 9.498784065246582 L 0.003163814544677734 9.463033676147461 L 3.814697265625e-06 3.814697265625e-06 Z" stroke="none" fill="#d9d9ff"/></g></g><path d="M106.215,101.669l-3.483,11.372" transform="translate(301 172.594)" fill="none" stroke="#a5a6d1" stroke-width="4"/><path d="M103.865,56.226s-15.056,19.1-14.506,53.891" transform="translate(301 174)" fill="none" stroke="#a5a6d1" stroke-width="4"/><path d="M120.394,86.5l9,7.9" transform="translate(301 174)" fill="none" stroke="#a5a6d1" stroke-width="4"/><path d="M127.1,66.487,141.51,81.819l23.5,8.538-6.243,17.627-17.26-6.518" transform="translate(301 174)" fill="none" stroke="#a5a6d1" stroke-width="4"/><path d="M341.262,236.688l3.861,18.523,15.808.724L357.5,236.557Z" fill="none" stroke="#a5a6d1" stroke-width="4"/><path d="M362,256.417l13.761-9.691,22.592-5.321L396.875,223.5l-25.339,4.407-14.138,8.63" fill="none" stroke="#a5a6d1" stroke-width="4"/><path d="M396.783,223.5l-2.2-5.692-34.336,6.151-20.381,12.486" fill="none" stroke="#a5a6d1" stroke-width="4"/><path d="M360.335,223.5l11.2,4.453,4.039,18.82" fill="none" stroke="#a5a6d1" stroke-width="4"/><path d="M384.435,245.739s-7.528,24.6-5.6,38.926l26.954.232" fill="none" stroke="#a5a6d1" stroke-width="4"/><path d="M419.229,271.629c0-.459,1.377-12.945,9-31.49,0-.092-20.381-9.181-20.381-9.181" fill="none" stroke="#a5a6d1" stroke-width="4"/><path d="M403.163,284.757s3.948,9.181,4.04,9.915,16.066-2.571,16.066-2.571l12.762,19.03" fill="none" stroke="#a5a6d1" stroke-width="4"/><path d="M405.916,275.585l23.045-7.262,20.932,30.755-15.6,11.09" fill="none" stroke="#a5a6d1" stroke-width="4"/><path d="M428.869,268.324h9l19.279,29.562-7.252,1.1" fill="none" stroke="#a5a6d1" stroke-width="4"/><path d="M434.031,310.319l.443-.081a77.094,77.094,0,0,1,8.953-.692l15.987-11.839" fill="none" stroke="#a5a6d1" stroke-width="4"/><path d="M380.841,284.759l2.118,27.609,23.3.235-3.373-26.9" fill="none" stroke="#a5a6d1" stroke-width="4"/><path d="M437.224,227.929l-2.571,10.466-36.631-10.466L400.685,217" fill="none" stroke="#a5a6d1" stroke-width="4"/><path d="M426.941,239.221l5.325-1.285" fill="none" stroke="#a5a6d1" stroke-width="4"/><path d="M390.035,218.5l6.335-26.165,8.813-6.518,40.028,12.669-1.653,8.722" fill="none" stroke="#a5a6d1" stroke-width="4"/><path d="M396.783,217c.046-.528,4.912-21,4.912-21l1.836-1.194,2.02.459,2.02-7.712,23.962,7.253.826-2.387,10.1,2.846-2.3,11.017,6.243,1.744-5.049,20.565-4.131.643V227.86l-3.03-.643,2.571-10.833-9-2.754-1.1,5.417-5.784-1.377,1.561-5.876-14.873-3.764-2.02,10.282-4.96-1.09-.234.79Z" fill="none" stroke="#a5a6d1" stroke-width="4"/><path d="M405.708,195.38l4.1,1.2,1.412-5.508s5.158,1.9,5.155,1.907-1.13,5.226-1.13,5.226l10.24,3.178,1.059-5.226,5.085,1.483-2.4,10.593,5.014,1.554,2.472-10.8-5.187-1.354" fill="none" stroke="#a5a6d1" stroke-width="4"/><path d="M442.2,255.8l-8.909,12.549" fill="#a5a6d1" stroke="#a5a6d1" stroke-width="4"/></g></svg>