<svg xmlns="http://www.w3.org/2000/svg" xmlns:xlink="http://www.w3.org/1999/xlink" width="108" height="81" viewBox="0 0 108 81"><defs><clipPath id="b"><use xlink:href="#a"/></clipPath><clipPath id="d"><use xlink:href="#c"/></clipPath><clipPath id="f"><use xlink:href="#e"/></clipPath></defs><g transform="translate(-873.734 -742.42)"><g transform="translate(873.734 742.42)" fill="#fff" stroke="#a5a6d1" stroke-width="5"><rect width="108" height="81" stroke="none"/><rect x="2.5" y="2.5" width="103" height="76" fill="none"/></g><g transform="translate(873.734 777.42)" fill="#fff" stroke="#a5a6d1" stroke-width="5"><rect width="108" height="13" stroke="none"/><rect x="2.5" y="2.5" width="103" height="8" fill="none"/></g><g transform="translate(917.734 774.42)" fill="#fff" stroke="#a5a6d1" stroke-width="5"><rect width="20" height="19" stroke="none"/><rect x="2.5" y="2.5" width="15" height="14" fill="none"/></g><g transform="translate(925.734 790.42)" fill="#fff" stroke="#a5a6d1" stroke-width="5"><rect id="a" width="4" height="32" stroke="none"/><path d="M0,2.5h4M2.5,0v32M4,29.5h-4M1.5,32v-32" fill="none" clip-path="url(#b)"/></g><g transform="translate(892.734 744.42)" fill="#fff" stroke="#a5a6d1" stroke-width="5"><rect id="c" width="4" height="34" stroke="none"/><path d="M0,2.5h4M2.5,0v34M4,31.5h-4M1.5,34v-34" fill="none" clip-path="url(#d)"/></g><g transform="translate(958.734 744.42)" fill="#fff" stroke="#a5a6d1" stroke-width="5"><rect id="e" width="4" height="34" stroke="none"/><path d="M0,2.5h4M2.5,0v34M4,31.5h-4M1.5,34v-34" fill="none" clip-path="url(#f)"/></g></g></svg>