<svg xmlns="http://www.w3.org/2000/svg" width="84.492" height="103.908" viewBox="0 0 84.492 103.908"><g transform="translate(-1451.455 -295.443)"><path d="M1491.436,394.729l-8.734-14.672-14.673-13.974-7.336-13.275h69.17l-9.432,8.734-3.494,11.179-2.445,12.227-10.48,9.782-4.891,12.576Z" transform="translate(-5 -13.567)" fill="none" stroke="#a5a6d1" stroke-width="5"/><path d="M1461.469,392.486l1.861,5.788v3.1l3.927-3.1,1.861-3.307,1.447-2.481Z" transform="translate(61.03 -30.397)" fill="none" stroke="#a5a6d1" stroke-width="5"/><g transform="translate(1462.656 327.443)" fill="none" stroke="#a5a6d1" stroke-width="5"><rect width="10" height="10" stroke="none"/><rect x="2.5" y="2.5" width="5" height="5" fill="none"/></g><g transform="translate(1506.656 316.443)" fill="none" stroke="#a5a6d1" stroke-width="5"><rect width="7" height="21" stroke="none"/><rect x="2.5" y="2.5" width="2" height="16" fill="none"/></g><g transform="translate(1526.656 316.443) rotate(90)" fill="none" stroke="#a5a6d1" stroke-width="5"><rect width="8" height="34" stroke="none"/><rect x="2.5" y="2.5" width="3" height="29" fill="none"/></g><g transform="translate(1526.656 308.443) rotate(90)" fill="none" stroke="#a5a6d1" stroke-width="5"><rect width="9" height="34" stroke="none"/><rect x="2.5" y="2.5" width="4" height="29" fill="none"/></g><g transform="translate(1519.656 302.443) rotate(90)" fill="none" stroke="#a5a6d1" stroke-width="5"><rect width="7" height="20" stroke="none"/><rect x="2.5" y="2.5" width="2" height="15" fill="none"/></g><g transform="translate(1513.656 295.443) rotate(90)" fill="none" stroke="#a5a6d1" stroke-width="5"><rect width="7" height="7" stroke="none"/><rect x="2.5" y="2.5" width="2" height="2" fill="none"/></g></g></svg>