<svg xmlns="http://www.w3.org/2000/svg" width="120.911" height="117.66" viewBox="0 0 120.911 117.66"><g transform="translate(-1514.07 -477.116)"><path d="M1550.513,499.159v-12.5l-15.359-7.853-17.553,9.238,4.273,18.477" transform="translate(0 0)" fill="none" stroke="#d9d9ff" stroke-width="3"/><path d="M1541.515,478.806l1.024,21.162" transform="translate(-6.115 0)" fill="none" stroke="#d9d9ff" stroke-width="3"/><path d="M1525.392,555.486l6.7,14.666h4.735l5.889,15.705,12.125-15.705,10.855-3.811,3.464-12.7,7.391-3.118,4.273-7.737-9.816-3-26.56,1.617-15.821,5.774-9.007,4.735Z" transform="translate(-0.516 -15.592)" fill="none" stroke="#a5a6d1" stroke-width="5"/><path d="M1526.728,539.376l-8.661-21.826,13.049-10.047,25.637-.693,7.275,23.211Z" transform="translate(-0.119 -7.161)" fill="none" stroke="#a5a6d1" stroke-width="3"/><path d="M1536.22,507.742l9.585,27.138" transform="translate(-4.761 -7.399)" fill="none" stroke="#a5a6d1" stroke-width="3"/><path d="M1598.049,586.911c.808.231,16.283,4.966,16.283,4.966l28.755-2.656,7.265-4.225-7.265,17.274-4.388,2.194-14.435,14.2-9.931-7.16-1.963-7.853s-7.853.693-8.084-1.386S1598.049,586.911,1598.049,586.911Z" transform="translate(-20.571 -27.154)" fill="none" stroke="#a5a6d1" stroke-width="5"/><path d="M1663.215,581.563l-20.875-3.82" transform="translate(-30.408 -26.788)" fill="none" stroke="#a5a6d1" stroke-width="5"/><path d="M1601.85,583.94" transform="translate(-21.543 -26.884)" fill="none" stroke="#a5a6d1" stroke-width="3"/><path d="M1600.565,584.536l-4.816,1.818" transform="translate(-20.727 -27.781)" fill="none" stroke="#a5a6d1" stroke-width="5"/><path d="M1602.262,583.678c.205-1.162-3.348-9.771-3.348-9.771l6.97-3.417,6.833.547,2.118,11.48-5.808,1.845Z" transform="translate(-20.792 -23.444)" fill="none" stroke="#a5a6d1" stroke-width="3"/><path d="M1609.424,584.832l-2.528-9.293h-6.7" transform="translate(-21.121 -24.736)" fill="none" stroke="#a5a6d1" stroke-width="3"/><path d="M1614.776,572.143l-5.672,2.528" transform="translate(-23.398 -23.867)" fill="none" stroke="#a5a6d1" stroke-width="3"/><path d="M1620.762,583.344l-1.419-9.672,13.351-.309,2.193,10.571Z" transform="translate(-26.016 -24.179)" fill="none" stroke="#d9d9ff" stroke-width="3"/><path d="M1639.309,579.062l4.783-1.5,1.162,6.082-4.646,1.162Z" transform="translate(-31.122 -25.252)" fill="none" stroke="#a5a6d1" stroke-width="3"/><path d="M1621.163,534.059s-10.129-2.938-9.788-3.622S1615,517.113,1615,517.113l-1.435-5.262,5.466-3.485,2.733-9.84,16.126-1.3,2.187,11.138,5.33.342,3.417,16.536-9.976,5.193-4.715.752-10.933,2.87Z" transform="translate(-23.977 -4.711)" fill="#fff" stroke="#a5a6d1" stroke-width="2"/><path d="M1624.529,543.912" transform="translate(-27.342 -16.648)" fill="none" stroke="#a5a6d1" stroke-width="2"/><path d="M1633.109,550.467l-5.945-.888-1.845-6.218h-1.708s1.982,8.883,2.392,8.883,7.106,1.367,7.106,1.367" transform="translate(-27.107 -16.507)" fill="none" stroke="#a5a6d1" stroke-width="2"/><path d="M1642.315,547.29l4.168-5.5v-4.032h-1.23l-1.5,4.783-1.772,1.712" transform="translate(-31.804 -15.075)" fill="none" stroke="#a5a6d1" stroke-width="2"/><path d="M1616.244,525.046l2.323,8.063,8.747.82,1.23,4.373-12.3-3.827Z" transform="translate(-25.224 -11.824)" fill="none" stroke="#a5a6d1" stroke-width="2"/><path d="M1611.367,540.79l3.562-3.075" transform="translate(-23.976 -15.064)" fill="none" stroke="#a5a6d1" stroke-width="2"/><path d="M1632.769,540.978l5.125-6.935,9.225,1.025-2.8,3.348" transform="translate(-29.449 -14.125)" fill="none" stroke="#a5a6d1" stroke-width="2"/><path d="M1621.189,511.091l6.628-2.938,1.5,14.486-9.771,6.013" transform="translate(-26.069 -7.504)" fill="none" stroke="#a5a6d1" stroke-width="2"/><path d="M1624.528,502.186l3.2,4.988" transform="translate(-27.342 -5.978)" fill="none" stroke="#a5a6d1" stroke-width="2"/><path d="M1630.658,508.153l4.168,9.908v5.466l-3.758,6.286" transform="translate(-28.909 -7.504)" fill="none" stroke="#a5a6d1" stroke-width="2"/><path d="M1636.372,520.5l.735-.41,10.045.41,1.216,10.812" transform="translate(-30.371 -10.556)" fill="none" stroke="#a5a6d1" stroke-width="2"/><path d="M1639.038,530.587l-2.127-10.06" transform="translate(-30.508 -10.669)" fill="none" stroke="#a5a6d1" stroke-width="2"/><path d="M1635.178,516.383l4.072-3.259,6.886-1" transform="translate(-30.065 -8.52)" fill="none" stroke="#a5a6d1" stroke-width="2"/><path d="M1640.508,513.679l1.524,4.731" transform="translate(-31.428 -8.917)" fill="none" stroke="#a5a6d1" stroke-width="2"/><path d="M1652.048,529.993l7.126,3.574" transform="translate(-34.379 -13.089)" fill="none" stroke="#a5a6d1" stroke-width="2"/><path d="M1637.16,563.8l-1.982-22.652,1.982-1.23,2.528-.41,2.323,28.289-3.28.957Z" transform="translate(-30.065 -15.521)" fill="none" stroke="#a5a6d1" stroke-width="2"/></g></svg>