<svg xmlns="http://www.w3.org/2000/svg" width="100" height="100" viewBox="0 0 100 100"><g transform="translate(-358 -201.706)"><g transform="translate(358 201.706)"><g transform="translate(22 34)" fill="#fff" stroke="#d9d9ff" stroke-width="5"><rect width="56" height="64" stroke="none"/><rect x="2.5" y="2.5" width="51" height="59" fill="none"/></g><g transform="translate(11 11.294)" fill="#fff" stroke="#d9d9ff" stroke-width="5"><rect width="78" height="28" stroke="none"/><rect x="2.5" y="2.5" width="73" height="23" fill="none"/></g><g transform="translate(0 91)" fill="#fff" stroke="#d9d9ff" stroke-width="5"><rect width="100" height="9" stroke="none"/><rect x="2.5" y="2.5" width="95" height="4" fill="none"/></g><g transform="translate(13.602 61.532) rotate(90)" fill="#fff" stroke="#d9d9ff" stroke-width="5"><rect width="34.903" height="9.972" stroke="none"/><rect x="2.5" y="2.5" width="29.903" height="4.972" fill="none"/></g><g transform="translate(96.37 61.532) rotate(90)" fill="#fff" stroke="#d9d9ff" stroke-width="5"><rect width="34.903" height="9.972" stroke="none"/><rect x="2.5" y="2.5" width="29.903" height="4.972" fill="none"/></g><g transform="translate(15.097)"><g transform="translate(9.972) rotate(90)" fill="#fff" stroke="#d9d9ff" stroke-width="5"><rect width="12.964" height="9.972" stroke="none"/><rect x="2.5" y="2.5" width="7.964" height="4.972" fill="none"/></g><g transform="translate(29.917) rotate(90)" fill="#fff" stroke="#d9d9ff" stroke-width="5"><rect width="12.964" height="9.972" stroke="none"/><rect x="2.5" y="2.5" width="7.964" height="4.972" fill="none"/></g><g transform="translate(49.862) rotate(90)" fill="#fff" stroke="#d9d9ff" stroke-width="5"><rect width="12.964" height="9.972" stroke="none"/><rect x="2.5" y="2.5" width="7.964" height="4.972" fill="none"/></g><g transform="translate(69.807) rotate(90)" fill="#fff" stroke="#d9d9ff" stroke-width="5"><rect width="12.964" height="9.972" stroke="none"/><rect x="2.5" y="2.5" width="7.964" height="4.972" fill="none"/></g></g></g><g transform="translate(360.75 207.091)"><g transform="translate(68.206 0) rotate(45)"><g transform="translate(8.595 -0.491)" fill="#fff"><path d="M 2.334777355194092 71.41333770751953 L 2.443897247314453 8.918257713317871 L 8.136482238769531 3.441014766693115 L 13.56298351287842 8.861322402954102 L 13.45379543304443 71.39552307128906 L 2.334777355194092 71.41333770751953 Z" stroke="none"/><path d="M 8.103727340698242 6.941818237304688 L 4.942033767700195 9.983917236328125 L 4.839142799377441 68.90930938720703 L 10.95815658569336 68.89950561523438 L 11.06118392944336 9.895900726318359 L 8.103727340698242 6.941818237304688 M 8.169212341308594 -0.05980682373046875 L 16.06479835510254 7.826766967773438 L 15.94944000244141 73.89152526855469 L -0.1696033477783203 73.91735076904297 L -0.0542449951171875 7.852577209472656 L 8.169212341308594 -0.05980682373046875 Z" stroke="none" fill="#a5a6d1"/></g><g transform="translate(-0.586 69.682)" fill="#fff"><path d="M 2.805113554000854 4.28825569152832 L 2.559640645980835 3.311560869216919 L 2.782052993774414 2.491023302078247 L 30.16951560974121 2.448174953460693 L 30.40851211547852 3.253754615783691 L 30.12893104553223 4.245506763458252 L 2.805113554000854 4.28825569152832 Z" stroke="none"/><path d="M 32.03466415405273 -0.05474948883056641 L 33.01095199584961 3.236030578613281 L 32.02244186401367 6.742550849914551 L 0.8564529418945313 6.791310787200928 L -0.02410507202148438 3.287710666656494 L 0.8686752319335938 -0.005989551544189453 L 32.03466415405273 -0.05474948883056641 Z" stroke="none" fill="#a5a6d1"/></g><g transform="translate(21.171 74.626) rotate(90)" fill="#fff"><path d="M 18.50758361816406 7.106269836425781 L 2.564808130264282 7.079054832458496 L 2.557450771331787 2.616053581237793 L 18.50023078918457 2.643268346786499 L 18.50758361816406 7.106269836425781 Z" stroke="none"/><path d="M 0.05331611633300781 0.1117715835571289 L 20.99611473083496 0.14752197265625 L 21.01171493530273 9.610551834106445 L 0.06890487670898438 9.574801445007324 L 0.05331611633300781 0.1117715835571289 Z" stroke="none" fill="#a5a6d1"/></g></g><g transform="translate(0.692 23.279) rotate(-45)"><g transform="translate(8.966 0.064)" fill="#fff"><path d="M 14.12582302093506 71.53519439697266 L 3.015220642089844 71.51597595214844 L 2.898676872253418 9.010391235351563 L 8.554862022399902 3.565412521362305 L 14.00926208496094 9.014789581298828 L 14.12582302093506 71.53519439697266 Z" stroke="none"/><path d="M 8.522359848022461 7.066848754882813 L 5.400655746459961 10.07199096679688 L 5.510549545288086 69.02029418945313 L 11.62115287780762 69.03086090087891 L 11.51119136810303 10.05292510986328 L 8.522359848022461 7.066848754882813 M 8.58735179901123 0.0639801025390625 L 16.50732231140137 7.976654052734375 L 16.63049507141113 74.03952789306641 L 0.5198516845703125 74.01166534423828 L 0.3966941833496094 7.948799133300781 L 8.58735179901123 0.0639801025390625 Z" stroke="none" fill="#a5a6d1"/></g><g transform="translate(0.069 70.463)" fill="#fff"><path d="M 28.36116218566895 4.515874862670898 L 2.8410325050354 4.48063850402832 L 2.600440740585327 3.481065988540649 L 2.803414106369019 2.675096750259399 L 28.38385963439941 2.710416793823242 L 28.61789703369141 3.536291837692261 L 28.36116218566895 4.515874862670898 Z" stroke="none"/><path d="M 0.855621337890625 0.1724023818969727 L 30.27459144592285 0.2130227088928223 L 31.20905303955078 3.510602474212646 L 30.28968238830566 7.018542766571045 L 0.8707218170166016 6.977922439575195 L 0.02578163146972656 3.46754264831543 L 0.855621337890625 0.1724023818969727 Z" stroke="none" fill="#a5a6d1"/></g><g transform="translate(22.119 74.546) rotate(90)" fill="#fff"><path d="M 2.48767614364624 6.955960750579834 L 2.495582818984985 2.49544358253479 L 18.43716049194336 2.466295719146729 L 18.42925453186035 6.926812648773193 L 2.48767614364624 6.955960750579834 Z" stroke="none"/><path d="M 20.94160842895508 -0.03829097747802734 L 20.92483901977539 9.422258377075195 L -0.01677131652832031 9.460548400878906 L -1.9073486328125e-06 -9.5367431640625e-07 L 20.94160842895508 -0.03829097747802734 Z" stroke="none" fill="#a5a6d1"/></g></g></g></g></svg>